<svg width="782" height="148" viewBox="0 0 782 148" xmlns="http://www.w3.org/2000/svg">
  <defs>
    <linearGradient id="beamGrad" x1="0%" y1="0%" x2="0%" y2="100%">
      <stop offset="0%" stop-color="#ef4444" stop-opacity="0"/>
      <stop offset="50%" stop-color="#fca5a5" stop-opacity="0.9"/>
      <stop offset="100%" stop-color="#ef4444" stop-opacity="0"/>
    </linearGradient>
  </defs>
  <rect width="782" height="148" fill="#0a0505" rx="10"/>
  <text x="20" y="18" font-family="'JetBrains Mono',monospace" font-size="11" fill="#7f1d1d">neural_scanner.scan(contributions)</text>
  <rect x="20" y="30" width="11" height="11" rx="2" fill="#1c0f0f" stroke="#2e1515" stroke-width="0.5"></rect><rect x="20" y="44" width="11" height="11" rx="2" fill="#1c0f0f" stroke="#2e1515" stroke-width="0.5"></rect><rect x="20" y="58" width="11" height="11" rx="2" fill="#1c0f0f" stroke="#2e1515" stroke-width="0.5"></rect><rect x="20" y="72" width="11" height="11" rx="2" fill="#1c0f0f" stroke="#2e1515" stroke-width="0.5"></rect><rect x="20" y="86" width="11" height="11" rx="2" fill="#1c0f0f" stroke="#2e1515" stroke-width="0.5"></rect><rect x="20" y="100" width="11" height="11" rx="2" fill="#1c0f0f" stroke="#2e1515" stroke-width="0.5"></rect><rect x="20" y="114" width="11" height="11" rx="2" fill="#1c0f0f" stroke="#2e1515" stroke-width="0.5"></rect><rect x="34" y="30" width="11" height="11" rx="2" fill="#1c0f0f" stroke="#2e1515" stroke-width="0.5"></rect><rect x="34" y="44" width="11" height="11" rx="2" fill="#1c0f0f" stroke="#2e1515" stroke-width="0.5"></rect><rect x="34" y="58" width="11" height="11" rx="2" fill="#1c0f0f" stroke="#2e1515" stroke-width="0.5"></rect><rect x="34" y="72" width="11" height="11" rx="2" fill="#1c0f0f" stroke="#2e1515" stroke-width="0.5"></rect><rect x="34" y="86" width="11" height="11" rx="2" fill="#1c0f0f" stroke="#2e1515" stroke-width="0.5"></rect><rect x="34" y="100" width="11" height="11" rx="2" fill="#1c0f0f" stroke="#2e1515" stroke-width="0.5"></rect><rect x="34" y="114" width="11" height="11" rx="2" fill="#1c0f0f" stroke="#2e1515" stroke-width="0.5"></rect><rect x="48" y="30" width="11" height="11" rx="2" fill="#1c0f0f" stroke="#2e1515" stroke-width="0.5"></rect><rect x="48" y="44" width="11" height="11" rx="2" fill="#1c0f0f" stroke="#2e1515" stroke-width="0.5"></rect><rect x="48" y="58" width="11" height="11" rx="2" fill="#1c0f0f" stroke="#2e1515" stroke-width="0.5"></rect><rect x="48" y="72" width="11" height="11" rx="2" fill="#1c0f0f" stroke="#2e1515" stroke-width="0.5"></rect><rect x="48" y="86" width="11" height="11" rx="2" fill="#1c0f0f" stroke="#2e1515" stroke-width="0.5"></rect><rect x="48" y="100" width="11" height="11" rx="2" fill="#1c0f0f" stroke="#2e1515" stroke-width="0.5"></rect><rect x="48" y="114" width="11" height="11" rx="2" fill="#1c0f0f" stroke="#2e1515" stroke-width="0.5"></rect><rect x="62" y="30" width="11" height="11" rx="2" fill="#1c0f0f" stroke="#2e1515" stroke-width="0.5"></rect><rect x="62" y="44" width="11" height="11" rx="2" fill="#1c0f0f" stroke="#2e1515" stroke-width="0.5"></rect><rect x="62" y="58" width="11" height="11" rx="2" fill="#1c0f0f" stroke="#2e1515" stroke-width="0.5"></rect><rect x="62" y="72" width="11" height="11" rx="2" fill="#1c0f0f" stroke="#2e1515" stroke-width="0.5"></rect><rect x="62" y="86" width="11" height="11" rx="2" fill="#1c0f0f" stroke="#2e1515" stroke-width="0.5"></rect><rect x="62" y="100" width="11" height="11" rx="2" fill="#1c0f0f" stroke="#2e1515" stroke-width="0.5"></rect><rect x="62" y="114" width="11" height="11" rx="2" fill="#1c0f0f" stroke="#2e1515" stroke-width="0.5"></rect><rect x="76" y="30" width="11" height="11" rx="2" fill="#1c0f0f" stroke="#2e1515" stroke-width="0.5"></rect><rect x="76" y="44" width="11" height="11" rx="2" fill="#1c0f0f" stroke="#2e1515" stroke-width="0.5"></rect><rect x="76" y="58" width="11" height="11" rx="2" fill="#1c0f0f" stroke="#2e1515" stroke-width="0.5"></rect><rect x="76" y="72" width="11" height="11" rx="2" fill="#1c0f0f" stroke="#2e1515" stroke-width="0.5"></rect><rect x="76" y="86" width="11" height="11" rx="2" fill="#1c0f0f" stroke="#2e1515" stroke-width="0.5"></rect><rect x="76" y="100" width="11" height="11" rx="2" fill="#1c0f0f" stroke="#2e1515" stroke-width="0.5"></rect><rect x="76" y="114" width="11" height="11" rx="2" fill="#1c0f0f" stroke="#2e1515" stroke-width="0.5"></rect><rect x="90" y="30" width="11" height="11" rx="2" fill="#1c0f0f" stroke="#2e1515" stroke-width="0.5"></rect><rect x="90" y="44" width="11" height="11" rx="2" fill="#1c0f0f" stroke="#2e1515" stroke-width="0.5"></rect><rect x="90" y="58" width="11" height="11" rx="2" fill="#1c0f0f" stroke="#2e1515" stroke-width="0.5"></rect><rect x="90" y="72" width="11" height="11" rx="2" fill="#1c0f0f" stroke="#2e1515" stroke-width="0.5"></rect><rect x="90" y="86" width="11" height="11" rx="2" fill="#1c0f0f" stroke="#2e1515" stroke-width="0.5"></rect><rect x="90" y="100" width="11" height="11" rx="2" fill="#1c0f0f" stroke="#2e1515" stroke-width="0.5"></rect><rect x="90" y="114" width="11" height="11" rx="2" fill="#1c0f0f" stroke="#2e1515" stroke-width="0.5"></rect><rect x="104" y="30" width="11" height="11" rx="2" fill="#1c0f0f" stroke="#2e1515" stroke-width="0.5"></rect><rect x="104" y="44" width="11" height="11" rx="2" fill="#1c0f0f" stroke="#2e1515" stroke-width="0.5"></rect><rect x="104" y="58" width="11" height="11" rx="2" fill="#1c0f0f" stroke="#2e1515" stroke-width="0.5"></rect><rect x="104" y="72" width="11" height="11" rx="2" fill="#1c0f0f" stroke="#2e1515" stroke-width="0.5"></rect><rect x="104" y="86" width="11" height="11" rx="2" fill="#1c0f0f" stroke="#2e1515" stroke-width="0.5"></rect><rect x="104" y="100" width="11" height="11" rx="2" fill="#1c0f0f" stroke="#2e1515" stroke-width="0.5"></rect><rect x="104" y="114" width="11" height="11" rx="2" fill="#1c0f0f" stroke="#2e1515" stroke-width="0.5"></rect><rect x="118" y="30" width="11" height="11" rx="2" fill="#1c0f0f" stroke="#2e1515" stroke-width="0.5"></rect><rect x="118" y="44" width="11" height="11" rx="2" fill="#1c0f0f" stroke="#2e1515" stroke-width="0.5"></rect><rect x="118" y="58" width="11" height="11" rx="2" fill="#1c0f0f" stroke="#2e1515" stroke-width="0.5"></rect><rect x="118" y="72" width="11" height="11" rx="2" fill="#1c0f0f" stroke="#2e1515" stroke-width="0.5"></rect><rect x="118" y="86" width="11" height="11" rx="2" fill="#1c0f0f" stroke="#2e1515" stroke-width="0.5"></rect><rect x="118" y="100" width="11" height="11" rx="2" fill="#1c0f0f" stroke="#2e1515" stroke-width="0.5"></rect><rect x="118" y="114" width="11" height="11" rx="2" fill="#1c0f0f" stroke="#2e1515" stroke-width="0.5"></rect><rect x="132" y="30" width="11" height="11" rx="2" fill="#1c0f0f" stroke="#2e1515" stroke-width="0.5"></rect><rect x="132" y="44" width="11" height="11" rx="2" fill="#1c0f0f" stroke="#2e1515" stroke-width="0.5"></rect><rect x="132" y="58" width="11" height="11" rx="2" fill="#1c0f0f" stroke="#2e1515" stroke-width="0.5"></rect><rect x="132" y="72" width="11" height="11" rx="2" fill="#1c0f0f" stroke="#2e1515" stroke-width="0.5"></rect><rect x="132" y="86" width="11" height="11" rx="2" fill="#1c0f0f" stroke="#2e1515" stroke-width="0.5"></rect><rect x="132" y="100" width="11" height="11" rx="2" fill="#1c0f0f" stroke="#2e1515" stroke-width="0.5"></rect><rect x="132" y="114" width="11" height="11" rx="2" fill="#1c0f0f" stroke="#2e1515" stroke-width="0.5"></rect><rect x="146" y="30" width="11" height="11" rx="2" fill="#1c0f0f" stroke="#2e1515" stroke-width="0.5"></rect><rect x="146" y="44" width="11" height="11" rx="2" fill="#1c0f0f" stroke="#2e1515" stroke-width="0.5"></rect><rect x="146" y="58" width="11" height="11" rx="2" fill="#1c0f0f" stroke="#2e1515" stroke-width="0.5"></rect><rect x="146" y="72" width="11" height="11" rx="2" fill="#1c0f0f" stroke="#2e1515" stroke-width="0.5"></rect><rect x="146" y="86" width="11" height="11" rx="2" fill="#1c0f0f" stroke="#2e1515" stroke-width="0.5"></rect><rect x="146" y="100" width="11" height="11" rx="2" fill="#1c0f0f" stroke="#2e1515" stroke-width="0.5"></rect><rect x="146" y="114" width="11" height="11" rx="2" fill="#1c0f0f" stroke="#2e1515" stroke-width="0.5"></rect><rect x="160" y="30" width="11" height="11" rx="2" fill="#1c0f0f" stroke="#2e1515" stroke-width="0.5"></rect><rect x="160" y="44" width="11" height="11" rx="2" fill="#1c0f0f" stroke="#2e1515" stroke-width="0.5"></rect><rect x="160" y="58" width="11" height="11" rx="2" fill="#1c0f0f" stroke="#2e1515" stroke-width="0.5"></rect><rect x="160" y="72" width="11" height="11" rx="2" fill="#1c0f0f" stroke="#2e1515" stroke-width="0.5"></rect><rect x="160" y="86" width="11" height="11" rx="2" fill="#1c0f0f" stroke="#2e1515" stroke-width="0.5"></rect><rect x="160" y="100" width="11" height="11" rx="2" fill="#1c0f0f" stroke="#2e1515" stroke-width="0.5"></rect><rect x="160" y="114" width="11" height="11" rx="2" fill="#1c0f0f" stroke="#2e1515" stroke-width="0.5"></rect><rect x="174" y="30" width="11" height="11" rx="2" fill="#1c0f0f" stroke="#2e1515" stroke-width="0.5"></rect><rect x="174" y="44" width="11" height="11" rx="2" fill="#1c0f0f" stroke="#2e1515" stroke-width="0.5"></rect><rect x="174" y="58" width="11" height="11" rx="2" fill="#1c0f0f" stroke="#2e1515" stroke-width="0.5"></rect><rect x="174" y="72" width="11" height="11" rx="2" fill="#1c0f0f" stroke="#2e1515" stroke-width="0.5"></rect><rect x="174" y="86" width="11" height="11" rx="2" fill="#1c0f0f" stroke="#2e1515" stroke-width="0.5"></rect><rect x="174" y="100" width="11" height="11" rx="2" fill="#1c0f0f" stroke="#2e1515" stroke-width="0.5"></rect><rect x="174" y="114" width="11" height="11" rx="2" fill="#1c0f0f" stroke="#2e1515" stroke-width="0.5"></rect><rect x="188" y="30" width="11" height="11" rx="2" fill="#1c0f0f" stroke="#2e1515" stroke-width="0.5"></rect><rect x="188" y="44" width="11" height="11" rx="2" fill="#1c0f0f" stroke="#2e1515" stroke-width="0.5"></rect><rect x="188" y="58" width="11" height="11" rx="2" fill="#1c0f0f" stroke="#2e1515" stroke-width="0.5"></rect><rect x="188" y="72" width="11" height="11" rx="2" fill="#1c0f0f" stroke="#2e1515" stroke-width="0.5"></rect><rect x="188" y="86" width="11" height="11" rx="2" fill="#1c0f0f" stroke="#2e1515" stroke-width="0.5"></rect><rect x="188" y="100" width="11" height="11" rx="2" fill="#1c0f0f" stroke="#2e1515" stroke-width="0.5"></rect><rect x="188" y="114" width="11" height="11" rx="2" fill="#1c0f0f" stroke="#2e1515" stroke-width="0.5"></rect><rect x="202" y="30" width="11" height="11" rx="2" fill="#1c0f0f" stroke="#2e1515" stroke-width="0.5"></rect><rect x="202" y="44" width="11" height="11" rx="2" fill="#1c0f0f" stroke="#2e1515" stroke-width="0.5"></rect><rect x="202" y="58" width="11" height="11" rx="2" fill="#1c0f0f" stroke="#2e1515" stroke-width="0.5"></rect><rect x="202" y="72" width="11" height="11" rx="2" fill="#1c0f0f" stroke="#2e1515" stroke-width="0.5"></rect><rect x="202" y="86" width="11" height="11" rx="2" fill="#1c0f0f" stroke="#2e1515" stroke-width="0.5"></rect><rect x="202" y="100" width="11" height="11" rx="2" fill="#1c0f0f" stroke="#2e1515" stroke-width="0.5"></rect><rect x="202" y="114" width="11" height="11" rx="2" fill="#1c0f0f" stroke="#2e1515" stroke-width="0.5"></rect><rect x="216" y="30" width="11" height="11" rx="2" fill="#1c0f0f" stroke="#2e1515" stroke-width="0.5"></rect><rect x="216" y="44" width="11" height="11" rx="2" fill="#1c0f0f" stroke="#2e1515" stroke-width="0.5"></rect><rect x="216" y="58" width="11" height="11" rx="2" fill="#1c0f0f" stroke="#2e1515" stroke-width="0.5"></rect><rect x="216" y="72" width="11" height="11" rx="2" fill="#1c0f0f" stroke="#2e1515" stroke-width="0.5"></rect><rect x="216" y="86" width="11" height="11" rx="2" fill="#1c0f0f" stroke="#2e1515" stroke-width="0.5"></rect><rect x="216" y="100" width="11" height="11" rx="2" fill="#1c0f0f" stroke="#2e1515" stroke-width="0.5"></rect><rect x="216" y="114" width="11" height="11" rx="2" fill="#1c0f0f" stroke="#2e1515" stroke-width="0.5"></rect><rect x="230" y="30" width="11" height="11" rx="2" fill="#1c0f0f" stroke="#2e1515" stroke-width="0.5"></rect><rect x="230" y="44" width="11" height="11" rx="2" fill="#1c0f0f" stroke="#2e1515" stroke-width="0.5"></rect><rect x="230" y="58" width="11" height="11" rx="2" fill="#1c0f0f" stroke="#2e1515" stroke-width="0.5"></rect><rect x="230" y="72" width="11" height="11" rx="2" fill="#1c0f0f" stroke="#2e1515" stroke-width="0.5"></rect><rect x="230" y="86" width="11" height="11" rx="2" fill="#1c0f0f" stroke="#2e1515" stroke-width="0.5"></rect><rect x="230" y="100" width="11" height="11" rx="2" fill="#1c0f0f" stroke="#2e1515" stroke-width="0.5"></rect><rect x="230" y="114" width="11" height="11" rx="2" fill="#1c0f0f" stroke="#2e1515" stroke-width="0.5"></rect><rect x="244" y="30" width="11" height="11" rx="2" fill="#1c0f0f" stroke="#2e1515" stroke-width="0.5"></rect><rect x="244" y="44" width="11" height="11" rx="2" fill="#1c0f0f" stroke="#2e1515" stroke-width="0.5"></rect><rect x="244" y="58" width="11" height="11" rx="2" fill="#1c0f0f" stroke="#2e1515" stroke-width="0.5"></rect><rect x="244" y="72" width="11" height="11" rx="2" fill="#1c0f0f" stroke="#2e1515" stroke-width="0.5"></rect><rect x="244" y="86" width="11" height="11" rx="2" fill="#1c0f0f" stroke="#2e1515" stroke-width="0.5"></rect><rect x="244" y="100" width="11" height="11" rx="2" fill="#1c0f0f" stroke="#2e1515" stroke-width="0.5"></rect><rect x="244" y="114" width="11" height="11" rx="2" fill="#1c0f0f" stroke="#2e1515" stroke-width="0.5"></rect><rect x="258" y="30" width="11" height="11" rx="2" fill="#1c0f0f" stroke="#2e1515" stroke-width="0.5"></rect><rect x="258" y="44" width="11" height="11" rx="2" fill="#1c0f0f" stroke="#2e1515" stroke-width="0.5"></rect><rect x="258" y="58" width="11" height="11" rx="2" fill="#1c0f0f" stroke="#2e1515" stroke-width="0.5"></rect><rect x="258" y="72" width="11" height="11" rx="2" fill="#1c0f0f" stroke="#2e1515" stroke-width="0.5"></rect><rect x="258" y="86" width="11" height="11" rx="2" fill="#1c0f0f" stroke="#2e1515" stroke-width="0.5"></rect><rect x="258" y="100" width="11" height="11" rx="2" fill="#1c0f0f" stroke="#2e1515" stroke-width="0.5"></rect><rect x="258" y="114" width="11" height="11" rx="2" fill="#1c0f0f" stroke="#2e1515" stroke-width="0.5"></rect><rect x="272" y="30" width="11" height="11" rx="2" fill="#1c0f0f" stroke="#2e1515" stroke-width="0.5"></rect><rect x="272" y="44" width="11" height="11" rx="2" fill="#1c0f0f" stroke="#2e1515" stroke-width="0.5"></rect><rect x="272" y="58" width="11" height="11" rx="2" fill="#1c0f0f" stroke="#2e1515" stroke-width="0.5"></rect><rect x="272" y="72" width="11" height="11" rx="2" fill="#1c0f0f" stroke="#2e1515" stroke-width="0.5"></rect><rect x="272" y="86" width="11" height="11" rx="2" fill="#1c0f0f" stroke="#2e1515" stroke-width="0.5"></rect><rect x="272" y="100" width="11" height="11" rx="2" fill="#1c0f0f" stroke="#2e1515" stroke-width="0.5"></rect><rect x="272" y="114" width="11" height="11" rx="2" fill="#1c0f0f" stroke="#2e1515" stroke-width="0.5"></rect><rect x="286" y="30" width="11" height="11" rx="2" fill="#1c0f0f" stroke="#2e1515" stroke-width="0.5"></rect><rect x="286" y="44" width="11" height="11" rx="2" fill="#1c0f0f" stroke="#2e1515" stroke-width="0.5"></rect><rect x="286" y="58" width="11" height="11" rx="2" fill="#1c0f0f" stroke="#2e1515" stroke-width="0.5"></rect><rect x="286" y="72" width="11" height="11" rx="2" fill="#1c0f0f" stroke="#2e1515" stroke-width="0.5"></rect><rect x="286" y="86" width="11" height="11" rx="2" fill="#1c0f0f" stroke="#2e1515" stroke-width="0.5"></rect><rect x="286" y="100" width="11" height="11" rx="2" fill="#1c0f0f" stroke="#2e1515" stroke-width="0.5"></rect><rect x="286" y="114" width="11" height="11" rx="2" fill="#1c0f0f" stroke="#2e1515" stroke-width="0.5"></rect><rect x="300" y="30" width="11" height="11" rx="2" fill="#1c0f0f" stroke="#2e1515" stroke-width="0.5"></rect><rect x="300" y="44" width="11" height="11" rx="2" fill="#1c0f0f" stroke="#2e1515" stroke-width="0.5"></rect><rect x="300" y="58" width="11" height="11" rx="2" fill="#1c0f0f" stroke="#2e1515" stroke-width="0.5"></rect><rect x="300" y="72" width="11" height="11" rx="2" fill="#1c0f0f" stroke="#2e1515" stroke-width="0.5"></rect><rect x="300" y="86" width="11" height="11" rx="2" fill="#1c0f0f" stroke="#2e1515" stroke-width="0.5"></rect><rect x="300" y="100" width="11" height="11" rx="2" fill="#1c0f0f" stroke="#2e1515" stroke-width="0.5"></rect><rect x="300" y="114" width="11" height="11" rx="2" fill="#1c0f0f" stroke="#2e1515" stroke-width="0.5"></rect><rect x="314" y="30" width="11" height="11" rx="2" fill="#1c0f0f" stroke="#2e1515" stroke-width="0.5"></rect><rect x="314" y="44" width="11" height="11" rx="2" fill="#1c0f0f" stroke="#2e1515" stroke-width="0.5"></rect><rect x="314" y="58" width="11" height="11" rx="2" fill="#1c0f0f" stroke="#2e1515" stroke-width="0.5"></rect><rect x="314" y="72" width="11" height="11" rx="2" fill="#1c0f0f" stroke="#2e1515" stroke-width="0.5"></rect><rect x="314" y="86" width="11" height="11" rx="2" fill="#1c0f0f" stroke="#2e1515" stroke-width="0.5"></rect><rect x="314" y="100" width="11" height="11" rx="2" fill="#1c0f0f" stroke="#2e1515" stroke-width="0.5"></rect><rect x="314" y="114" width="11" height="11" rx="2" fill="#1c0f0f" stroke="#2e1515" stroke-width="0.5"></rect><rect x="328" y="30" width="11" height="11" rx="2" fill="#1c0f0f" stroke="#2e1515" stroke-width="0.5"></rect><rect x="328" y="44" width="11" height="11" rx="2" fill="#1c0f0f" stroke="#2e1515" stroke-width="0.5"></rect><rect x="328" y="58" width="11" height="11" rx="2" fill="#1c0f0f" stroke="#2e1515" stroke-width="0.5"></rect><rect x="328" y="72" width="11" height="11" rx="2" fill="#1c0f0f" stroke="#2e1515" stroke-width="0.5"></rect><rect x="328" y="86" width="11" height="11" rx="2" fill="#1c0f0f" stroke="#2e1515" stroke-width="0.5"></rect><rect x="328" y="100" width="11" height="11" rx="2" fill="#1c0f0f" stroke="#2e1515" stroke-width="0.5"></rect><rect x="328" y="114" width="11" height="11" rx="2" fill="#1c0f0f" stroke="#2e1515" stroke-width="0.5"></rect><rect x="342" y="30" width="11" height="11" rx="2" fill="#1c0f0f" stroke="#2e1515" stroke-width="0.5"></rect><rect x="342" y="44" width="11" height="11" rx="2" fill="#1c0f0f" stroke="#2e1515" stroke-width="0.5"></rect><rect x="342" y="58" width="11" height="11" rx="2" fill="#8f2b2b" stroke="#2e1515" stroke-width="0.5"><animate attributeName="opacity" values="0.55;1;0.85" keyTimes="0;0.15;1" dur="0.6s" begin="2.11s" fill="freeze"/></rect><rect x="342" y="72" width="11" height="11" rx="2" fill="#8f2b2b" stroke="#2e1515" stroke-width="0.5"><animate attributeName="opacity" values="0.55;1;0.85" keyTimes="0;0.15;1" dur="0.6s" begin="2.11s" fill="freeze"/></rect><rect x="342" y="86" width="11" height="11" rx="2" fill="#1c0f0f" stroke="#2e1515" stroke-width="0.5"></rect><rect x="342" y="100" width="11" height="11" rx="2" fill="#1c0f0f" stroke="#2e1515" stroke-width="0.5"></rect><rect x="342" y="114" width="11" height="11" rx="2" fill="#1c0f0f" stroke="#2e1515" stroke-width="0.5"></rect><rect x="356" y="30" width="11" height="11" rx="2" fill="#5a1f1f" stroke="#2e1515" stroke-width="0.5"><animate attributeName="opacity" values="0.55;1;0.85" keyTimes="0;0.15;1" dur="0.6s" begin="2.2s" fill="freeze"/></rect><rect x="356" y="44" width="11" height="11" rx="2" fill="#5a1f1f" stroke="#2e1515" stroke-width="0.5"><animate attributeName="opacity" values="0.55;1;0.85" keyTimes="0;0.15;1" dur="0.6s" begin="2.2s" fill="freeze"/></rect><rect x="356" y="58" width="11" height="11" rx="2" fill="#1c0f0f" stroke="#2e1515" stroke-width="0.5"></rect><rect x="356" y="72" width="11" height="11" rx="2" fill="#1c0f0f" stroke="#2e1515" stroke-width="0.5"></rect><rect x="356" y="86" width="11" height="11" rx="2" fill="#5a1f1f" stroke="#2e1515" stroke-width="0.5"><animate attributeName="opacity" values="0.55;1;0.85" keyTimes="0;0.15;1" dur="0.6s" begin="2.2s" fill="freeze"/></rect><rect x="356" y="100" width="11" height="11" rx="2" fill="#1c0f0f" stroke="#2e1515" stroke-width="0.5"></rect><rect x="356" y="114" width="11" height="11" rx="2" fill="#1c0f0f" stroke="#2e1515" stroke-width="0.5"></rect><rect x="370" y="30" width="11" height="11" rx="2" fill="#1c0f0f" stroke="#2e1515" stroke-width="0.5"></rect><rect x="370" y="44" width="11" height="11" rx="2" fill="#1c0f0f" stroke="#2e1515" stroke-width="0.5"></rect><rect x="370" y="58" width="11" height="11" rx="2" fill="#1c0f0f" stroke="#2e1515" stroke-width="0.5"></rect><rect x="370" y="72" width="11" height="11" rx="2" fill="#1c0f0f" stroke="#2e1515" stroke-width="0.5"></rect><rect x="370" y="86" width="11" height="11" rx="2" fill="#1c0f0f" stroke="#2e1515" stroke-width="0.5"></rect><rect x="370" y="100" width="11" height="11" rx="2" fill="#1c0f0f" stroke="#2e1515" stroke-width="0.5"></rect><rect x="370" y="114" width="11" height="11" rx="2" fill="#1c0f0f" stroke="#2e1515" stroke-width="0.5"></rect><rect x="384" y="30" width="11" height="11" rx="2" fill="#1c0f0f" stroke="#2e1515" stroke-width="0.5"></rect><rect x="384" y="44" width="11" height="11" rx="2" fill="#1c0f0f" stroke="#2e1515" stroke-width="0.5"></rect><rect x="384" y="58" width="11" height="11" rx="2" fill="#1c0f0f" stroke="#2e1515" stroke-width="0.5"></rect><rect x="384" y="72" width="11" height="11" rx="2" fill="#1c0f0f" stroke="#2e1515" stroke-width="0.5"></rect><rect x="384" y="86" width="11" height="11" rx="2" fill="#1c0f0f" stroke="#2e1515" stroke-width="0.5"></rect><rect x="384" y="100" width="11" height="11" rx="2" fill="#1c0f0f" stroke="#2e1515" stroke-width="0.5"></rect><rect x="384" y="114" width="11" height="11" rx="2" fill="#1c0f0f" stroke="#2e1515" stroke-width="0.5"></rect><rect x="398" y="30" width="11" height="11" rx="2" fill="#1c0f0f" stroke="#2e1515" stroke-width="0.5"></rect><rect x="398" y="44" width="11" height="11" rx="2" fill="#1c0f0f" stroke="#2e1515" stroke-width="0.5"></rect><rect x="398" y="58" width="11" height="11" rx="2" fill="#1c0f0f" stroke="#2e1515" stroke-width="0.5"></rect><rect x="398" y="72" width="11" height="11" rx="2" fill="#1c0f0f" stroke="#2e1515" stroke-width="0.5"></rect><rect x="398" y="86" width="11" height="11" rx="2" fill="#1c0f0f" stroke="#2e1515" stroke-width="0.5"></rect><rect x="398" y="100" width="11" height="11" rx="2" fill="#1c0f0f" stroke="#2e1515" stroke-width="0.5"></rect><rect x="398" y="114" width="11" height="11" rx="2" fill="#1c0f0f" stroke="#2e1515" stroke-width="0.5"></rect><rect x="412" y="30" width="11" height="11" rx="2" fill="#1c0f0f" stroke="#2e1515" stroke-width="0.5"></rect><rect x="412" y="44" width="11" height="11" rx="2" fill="#1c0f0f" stroke="#2e1515" stroke-width="0.5"></rect><rect x="412" y="58" width="11" height="11" rx="2" fill="#1c0f0f" stroke="#2e1515" stroke-width="0.5"></rect><rect x="412" y="72" width="11" height="11" rx="2" fill="#1c0f0f" stroke="#2e1515" stroke-width="0.5"></rect><rect x="412" y="86" width="11" height="11" rx="2" fill="#1c0f0f" stroke="#2e1515" stroke-width="0.5"></rect><rect x="412" y="100" width="11" height="11" rx="2" fill="#1c0f0f" stroke="#2e1515" stroke-width="0.5"></rect><rect x="412" y="114" width="11" height="11" rx="2" fill="#1c0f0f" stroke="#2e1515" stroke-width="0.5"></rect><rect x="426" y="30" width="11" height="11" rx="2" fill="#1c0f0f" stroke="#2e1515" stroke-width="0.5"></rect><rect x="426" y="44" width="11" height="11" rx="2" fill="#5a1f1f" stroke="#2e1515" stroke-width="0.5"><animate attributeName="opacity" values="0.55;1;0.85" keyTimes="0;0.15;1" dur="0.6s" begin="2.66s" fill="freeze"/></rect><rect x="426" y="58" width="11" height="11" rx="2" fill="#1c0f0f" stroke="#2e1515" stroke-width="0.5"></rect><rect x="426" y="72" width="11" height="11" rx="2" fill="#1c0f0f" stroke="#2e1515" stroke-width="0.5"></rect><rect x="426" y="86" width="11" height="11" rx="2" fill="#1c0f0f" stroke="#2e1515" stroke-width="0.5"></rect><rect x="426" y="100" width="11" height="11" rx="2" fill="#1c0f0f" stroke="#2e1515" stroke-width="0.5"></rect><rect x="426" y="114" width="11" height="11" rx="2" fill="#1c0f0f" stroke="#2e1515" stroke-width="0.5"></rect><rect x="440" y="30" width="11" height="11" rx="2" fill="#1c0f0f" stroke="#2e1515" stroke-width="0.5"></rect><rect x="440" y="44" width="11" height="11" rx="2" fill="#1c0f0f" stroke="#2e1515" stroke-width="0.5"></rect><rect x="440" y="58" width="11" height="11" rx="2" fill="#1c0f0f" stroke="#2e1515" stroke-width="0.5"></rect><rect x="440" y="72" width="11" height="11" rx="2" fill="#8f2b2b" stroke="#2e1515" stroke-width="0.5"><animate attributeName="opacity" values="0.55;1;0.85" keyTimes="0;0.15;1" dur="0.6s" begin="2.75s" fill="freeze"/></rect><rect x="440" y="86" width="11" height="11" rx="2" fill="#1c0f0f" stroke="#2e1515" stroke-width="0.5"></rect><rect x="440" y="100" width="11" height="11" rx="2" fill="#1c0f0f" stroke="#2e1515" stroke-width="0.5"></rect><rect x="440" y="114" width="11" height="11" rx="2" fill="#1c0f0f" stroke="#2e1515" stroke-width="0.5"></rect><rect x="454" y="30" width="11" height="11" rx="2" fill="#1c0f0f" stroke="#2e1515" stroke-width="0.5"></rect><rect x="454" y="44" width="11" height="11" rx="2" fill="#5a1f1f" stroke="#2e1515" stroke-width="0.5"><animate attributeName="opacity" values="0.55;1;0.85" keyTimes="0;0.15;1" dur="0.6s" begin="2.84s" fill="freeze"/></rect><rect x="454" y="58" width="11" height="11" rx="2" fill="#5a1f1f" stroke="#2e1515" stroke-width="0.5"><animate attributeName="opacity" values="0.55;1;0.85" keyTimes="0;0.15;1" dur="0.6s" begin="2.84s" fill="freeze"/></rect><rect x="454" y="72" width="11" height="11" rx="2" fill="#1c0f0f" stroke="#2e1515" stroke-width="0.5"></rect><rect x="454" y="86" width="11" height="11" rx="2" fill="#1c0f0f" stroke="#2e1515" stroke-width="0.5"></rect><rect x="454" y="100" width="11" height="11" rx="2" fill="#1c0f0f" stroke="#2e1515" stroke-width="0.5"></rect><rect x="454" y="114" width="11" height="11" rx="2" fill="#1c0f0f" stroke="#2e1515" stroke-width="0.5"></rect><rect x="468" y="30" width="11" height="11" rx="2" fill="#1c0f0f" stroke="#2e1515" stroke-width="0.5"></rect><rect x="468" y="44" width="11" height="11" rx="2" fill="#1c0f0f" stroke="#2e1515" stroke-width="0.5"></rect><rect x="468" y="58" width="11" height="11" rx="2" fill="#1c0f0f" stroke="#2e1515" stroke-width="0.5"></rect><rect x="468" y="72" width="11" height="11" rx="2" fill="#1c0f0f" stroke="#2e1515" stroke-width="0.5"></rect><rect x="468" y="86" width="11" height="11" rx="2" fill="#1c0f0f" stroke="#2e1515" stroke-width="0.5"></rect><rect x="468" y="100" width="11" height="11" rx="2" fill="#1c0f0f" stroke="#2e1515" stroke-width="0.5"></rect><rect x="468" y="114" width="11" height="11" rx="2" fill="#1c0f0f" stroke="#2e1515" stroke-width="0.5"></rect><rect x="482" y="30" width="11" height="11" rx="2" fill="#1c0f0f" stroke="#2e1515" stroke-width="0.5"></rect><rect x="482" y="44" width="11" height="11" rx="2" fill="#1c0f0f" stroke="#2e1515" stroke-width="0.5"></rect><rect x="482" y="58" width="11" height="11" rx="2" fill="#1c0f0f" stroke="#2e1515" stroke-width="0.5"></rect><rect x="482" y="72" width="11" height="11" rx="2" fill="#1c0f0f" stroke="#2e1515" stroke-width="0.5"></rect><rect x="482" y="86" width="11" height="11" rx="2" fill="#1c0f0f" stroke="#2e1515" stroke-width="0.5"></rect><rect x="482" y="100" width="11" height="11" rx="2" fill="#8f2b2b" stroke="#2e1515" stroke-width="0.5"><animate attributeName="opacity" values="0.55;1;0.85" keyTimes="0;0.15;1" dur="0.6s" begin="3.03s" fill="freeze"/></rect><rect x="482" y="114" width="11" height="11" rx="2" fill="#1c0f0f" stroke="#2e1515" stroke-width="0.5"></rect><rect x="496" y="30" width="11" height="11" rx="2" fill="#1c0f0f" stroke="#2e1515" stroke-width="0.5"></rect><rect x="496" y="44" width="11" height="11" rx="2" fill="#8f2b2b" stroke="#2e1515" stroke-width="0.5"><animate attributeName="opacity" values="0.55;1;0.85" keyTimes="0;0.15;1" dur="0.6s" begin="3.12s" fill="freeze"/></rect><rect x="496" y="58" width="11" height="11" rx="2" fill="#1c0f0f" stroke="#2e1515" stroke-width="0.5"></rect><rect x="496" y="72" width="11" height="11" rx="2" fill="#1c0f0f" stroke="#2e1515" stroke-width="0.5"></rect><rect x="496" y="86" width="11" height="11" rx="2" fill="#1c0f0f" stroke="#2e1515" stroke-width="0.5"></rect><rect x="496" y="100" width="11" height="11" rx="2" fill="#1c0f0f" stroke="#2e1515" stroke-width="0.5"></rect><rect x="496" y="114" width="11" height="11" rx="2" fill="#1c0f0f" stroke="#2e1515" stroke-width="0.5"></rect><rect x="510" y="30" width="11" height="11" rx="2" fill="#1c0f0f" stroke="#2e1515" stroke-width="0.5"></rect><rect x="510" y="44" width="11" height="11" rx="2" fill="#1c0f0f" stroke="#2e1515" stroke-width="0.5"></rect><rect x="510" y="58" width="11" height="11" rx="2" fill="#1c0f0f" stroke="#2e1515" stroke-width="0.5"></rect><rect x="510" y="72" width="11" height="11" rx="2" fill="#1c0f0f" stroke="#2e1515" stroke-width="0.5"></rect><rect x="510" y="86" width="11" height="11" rx="2" fill="#1c0f0f" stroke="#2e1515" stroke-width="0.5"></rect><rect x="510" y="100" width="11" height="11" rx="2" fill="#1c0f0f" stroke="#2e1515" stroke-width="0.5"></rect><rect x="510" y="114" width="11" height="11" rx="2" fill="#1c0f0f" stroke="#2e1515" stroke-width="0.5"></rect><rect x="524" y="30" width="11" height="11" rx="2" fill="#1c0f0f" stroke="#2e1515" stroke-width="0.5"></rect><rect x="524" y="44" width="11" height="11" rx="2" fill="#1c0f0f" stroke="#2e1515" stroke-width="0.5"></rect><rect x="524" y="58" width="11" height="11" rx="2" fill="#5a1f1f" stroke="#2e1515" stroke-width="0.5"><animate attributeName="opacity" values="0.55;1;0.85" keyTimes="0;0.15;1" dur="0.6s" begin="3.3s" fill="freeze"/></rect><rect x="524" y="72" width="11" height="11" rx="2" fill="#1c0f0f" stroke="#2e1515" stroke-width="0.5"></rect><rect x="524" y="86" width="11" height="11" rx="2" fill="#1c0f0f" stroke="#2e1515" stroke-width="0.5"></rect><rect x="524" y="100" width="11" height="11" rx="2" fill="#1c0f0f" stroke="#2e1515" stroke-width="0.5"></rect><rect x="524" y="114" width="11" height="11" rx="2" fill="#1c0f0f" stroke="#2e1515" stroke-width="0.5"></rect><rect x="538" y="30" width="11" height="11" rx="2" fill="#1c0f0f" stroke="#2e1515" stroke-width="0.5"></rect><rect x="538" y="44" width="11" height="11" rx="2" fill="#5a1f1f" stroke="#2e1515" stroke-width="0.5"><animate attributeName="opacity" values="0.55;1;0.85" keyTimes="0;0.15;1" dur="0.6s" begin="3.39s" fill="freeze"/></rect><rect x="538" y="58" width="11" height="11" rx="2" fill="#8f2b2b" stroke="#2e1515" stroke-width="0.5"><animate attributeName="opacity" values="0.55;1;0.85" keyTimes="0;0.15;1" dur="0.6s" begin="3.39s" fill="freeze"/></rect><rect x="538" y="72" width="11" height="11" rx="2" fill="#1c0f0f" stroke="#2e1515" stroke-width="0.5"></rect><rect x="538" y="86" width="11" height="11" rx="2" fill="#1c0f0f" stroke="#2e1515" stroke-width="0.5"></rect><rect x="538" y="100" width="11" height="11" rx="2" fill="#1c0f0f" stroke="#2e1515" stroke-width="0.5"></rect><rect x="538" y="114" width="11" height="11" rx="2" fill="#1c0f0f" stroke="#2e1515" stroke-width="0.5"></rect><rect x="552" y="30" width="11" height="11" rx="2" fill="#1c0f0f" stroke="#2e1515" stroke-width="0.5"></rect><rect x="552" y="44" width="11" height="11" rx="2" fill="#1c0f0f" stroke="#2e1515" stroke-width="0.5"></rect><rect x="552" y="58" width="11" height="11" rx="2" fill="#1c0f0f" stroke="#2e1515" stroke-width="0.5"></rect><rect x="552" y="72" width="11" height="11" rx="2" fill="#1c0f0f" stroke="#2e1515" stroke-width="0.5"></rect><rect x="552" y="86" width="11" height="11" rx="2" fill="#1c0f0f" stroke="#2e1515" stroke-width="0.5"></rect><rect x="552" y="100" width="11" height="11" rx="2" fill="#1c0f0f" stroke="#2e1515" stroke-width="0.5"></rect><rect x="552" y="114" width="11" height="11" rx="2" fill="#1c0f0f" stroke="#2e1515" stroke-width="0.5"></rect><rect x="566" y="30" width="11" height="11" rx="2" fill="#1c0f0f" stroke="#2e1515" stroke-width="0.5"></rect><rect x="566" y="44" width="11" height="11" rx="2" fill="#1c0f0f" stroke="#2e1515" stroke-width="0.5"></rect><rect x="566" y="58" width="11" height="11" rx="2" fill="#1c0f0f" stroke="#2e1515" stroke-width="0.5"></rect><rect x="566" y="72" width="11" height="11" rx="2" fill="#1c0f0f" stroke="#2e1515" stroke-width="0.5"></rect><rect x="566" y="86" width="11" height="11" rx="2" fill="#1c0f0f" stroke="#2e1515" stroke-width="0.5"></rect><rect x="566" y="100" width="11" height="11" rx="2" fill="#1c0f0f" stroke="#2e1515" stroke-width="0.5"></rect><rect x="566" y="114" width="11" height="11" rx="2" fill="#1c0f0f" stroke="#2e1515" stroke-width="0.5"></rect><rect x="580" y="30" width="11" height="11" rx="2" fill="#5a1f1f" stroke="#2e1515" stroke-width="0.5"><animate attributeName="opacity" values="0.55;1;0.85" keyTimes="0;0.15;1" dur="0.6s" begin="3.67s" fill="freeze"/></rect><rect x="580" y="44" width="11" height="11" rx="2" fill="#1c0f0f" stroke="#2e1515" stroke-width="0.5"></rect><rect x="580" y="58" width="11" height="11" rx="2" fill="#1c0f0f" stroke="#2e1515" stroke-width="0.5"></rect><rect x="580" y="72" width="11" height="11" rx="2" fill="#1c0f0f" stroke="#2e1515" stroke-width="0.5"></rect><rect x="580" y="86" width="11" height="11" rx="2" fill="#ef4444" stroke="#2e1515" stroke-width="0.5"><animate attributeName="opacity" values="0.55;1;0.85" keyTimes="0;0.15;1" dur="0.6s" begin="3.67s" fill="freeze"/></rect><rect x="580" y="100" width="11" height="11" rx="2" fill="#ef4444" stroke="#2e1515" stroke-width="0.5"><animate attributeName="opacity" values="0.55;1;0.85" keyTimes="0;0.15;1" dur="0.6s" begin="3.67s" fill="freeze"/></rect><rect x="580" y="114" width="11" height="11" rx="2" fill="#ef4444" stroke="#2e1515" stroke-width="0.5"><animate attributeName="opacity" values="0.55;1;0.85" keyTimes="0;0.15;1" dur="0.6s" begin="3.67s" fill="freeze"/></rect><rect x="594" y="30" width="11" height="11" rx="2" fill="#1c0f0f" stroke="#2e1515" stroke-width="0.5"></rect><rect x="594" y="44" width="11" height="11" rx="2" fill="#1c0f0f" stroke="#2e1515" stroke-width="0.5"></rect><rect x="594" y="58" width="11" height="11" rx="2" fill="#1c0f0f" stroke="#2e1515" stroke-width="0.5"></rect><rect x="594" y="72" width="11" height="11" rx="2" fill="#8f2b2b" stroke="#2e1515" stroke-width="0.5"><animate attributeName="opacity" values="0.55;1;0.85" keyTimes="0;0.15;1" dur="0.6s" begin="3.76s" fill="freeze"/></rect><rect x="594" y="86" width="11" height="11" rx="2" fill="#1c0f0f" stroke="#2e1515" stroke-width="0.5"></rect><rect x="594" y="100" width="11" height="11" rx="2" fill="#1c0f0f" stroke="#2e1515" stroke-width="0.5"></rect><rect x="594" y="114" width="11" height="11" rx="2" fill="#1c0f0f" stroke="#2e1515" stroke-width="0.5"></rect><rect x="608" y="30" width="11" height="11" rx="2" fill="#1c0f0f" stroke="#2e1515" stroke-width="0.5"></rect><rect x="608" y="44" width="11" height="11" rx="2" fill="#5a1f1f" stroke="#2e1515" stroke-width="0.5"><animate attributeName="opacity" values="0.55;1;0.85" keyTimes="0;0.15;1" dur="0.6s" begin="3.85s" fill="freeze"/></rect><rect x="608" y="58" width="11" height="11" rx="2" fill="#1c0f0f" stroke="#2e1515" stroke-width="0.5"></rect><rect x="608" y="72" width="11" height="11" rx="2" fill="#1c0f0f" stroke="#2e1515" stroke-width="0.5"></rect><rect x="608" y="86" width="11" height="11" rx="2" fill="#1c0f0f" stroke="#2e1515" stroke-width="0.5"></rect><rect x="608" y="100" width="11" height="11" rx="2" fill="#1c0f0f" stroke="#2e1515" stroke-width="0.5"></rect><rect x="608" y="114" width="11" height="11" rx="2" fill="#1c0f0f" stroke="#2e1515" stroke-width="0.5"></rect><rect x="622" y="30" width="11" height="11" rx="2" fill="#1c0f0f" stroke="#2e1515" stroke-width="0.5"></rect><rect x="622" y="44" width="11" height="11" rx="2" fill="#1c0f0f" stroke="#2e1515" stroke-width="0.5"></rect><rect x="622" y="58" width="11" height="11" rx="2" fill="#c23a3a" stroke="#2e1515" stroke-width="0.5"><animate attributeName="opacity" values="0.55;1;0.85" keyTimes="0;0.15;1" dur="0.6s" begin="3.94s" fill="freeze"/></rect><rect x="622" y="72" width="11" height="11" rx="2" fill="#1c0f0f" stroke="#2e1515" stroke-width="0.5"></rect><rect x="622" y="86" width="11" height="11" rx="2" fill="#1c0f0f" stroke="#2e1515" stroke-width="0.5"></rect><rect x="622" y="100" width="11" height="11" rx="2" fill="#1c0f0f" stroke="#2e1515" stroke-width="0.5"></rect><rect x="622" y="114" width="11" height="11" rx="2" fill="#1c0f0f" stroke="#2e1515" stroke-width="0.5"></rect><rect x="636" y="30" width="11" height="11" rx="2" fill="#1c0f0f" stroke="#2e1515" stroke-width="0.5"></rect><rect x="636" y="44" width="11" height="11" rx="2" fill="#1c0f0f" stroke="#2e1515" stroke-width="0.5"></rect><rect x="636" y="58" width="11" height="11" rx="2" fill="#1c0f0f" stroke="#2e1515" stroke-width="0.5"></rect><rect x="636" y="72" width="11" height="11" rx="2" fill="#1c0f0f" stroke="#2e1515" stroke-width="0.5"></rect><rect x="636" y="86" width="11" height="11" rx="2" fill="#1c0f0f" stroke="#2e1515" stroke-width="0.5"></rect><rect x="636" y="100" width="11" height="11" rx="2" fill="#1c0f0f" stroke="#2e1515" stroke-width="0.5"></rect><rect x="636" y="114" width="11" height="11" rx="2" fill="#1c0f0f" stroke="#2e1515" stroke-width="0.5"></rect><rect x="650" y="30" width="11" height="11" rx="2" fill="#5a1f1f" stroke="#2e1515" stroke-width="0.5"><animate attributeName="opacity" values="0.55;1;0.85" keyTimes="0;0.15;1" dur="0.6s" begin="4.13s" fill="freeze"/></rect><rect x="650" y="44" width="11" height="11" rx="2" fill="#ef4444" stroke="#2e1515" stroke-width="0.5"><animate attributeName="opacity" values="0.55;1;0.85" keyTimes="0;0.15;1" dur="0.6s" begin="4.13s" fill="freeze"/></rect><rect x="650" y="58" width="11" height="11" rx="2" fill="#ef4444" stroke="#2e1515" stroke-width="0.5"><animate attributeName="opacity" values="0.55;1;0.85" keyTimes="0;0.15;1" dur="0.6s" begin="4.13s" fill="freeze"/></rect><rect x="650" y="72" width="11" height="11" rx="2" fill="#5a1f1f" stroke="#2e1515" stroke-width="0.5"><animate attributeName="opacity" values="0.55;1;0.85" keyTimes="0;0.15;1" dur="0.6s" begin="4.13s" fill="freeze"/></rect><rect x="650" y="86" width="11" height="11" rx="2" fill="#5a1f1f" stroke="#2e1515" stroke-width="0.5"><animate attributeName="opacity" values="0.55;1;0.85" keyTimes="0;0.15;1" dur="0.6s" begin="4.13s" fill="freeze"/></rect><rect x="650" y="100" width="11" height="11" rx="2" fill="#5a1f1f" stroke="#2e1515" stroke-width="0.5"><animate attributeName="opacity" values="0.55;1;0.85" keyTimes="0;0.15;1" dur="0.6s" begin="4.13s" fill="freeze"/></rect><rect x="650" y="114" width="11" height="11" rx="2" fill="#5a1f1f" stroke="#2e1515" stroke-width="0.5"><animate attributeName="opacity" values="0.55;1;0.85" keyTimes="0;0.15;1" dur="0.6s" begin="4.13s" fill="freeze"/></rect><rect x="664" y="30" width="11" height="11" rx="2" fill="#5a1f1f" stroke="#2e1515" stroke-width="0.5"><animate attributeName="opacity" values="0.55;1;0.85" keyTimes="0;0.15;1" dur="0.6s" begin="4.22s" fill="freeze"/></rect><rect x="664" y="44" width="11" height="11" rx="2" fill="#5a1f1f" stroke="#2e1515" stroke-width="0.5"><animate attributeName="opacity" values="0.55;1;0.85" keyTimes="0;0.15;1" dur="0.6s" begin="4.22s" fill="freeze"/></rect><rect x="664" y="58" width="11" height="11" rx="2" fill="#5a1f1f" stroke="#2e1515" stroke-width="0.5"><animate attributeName="opacity" values="0.55;1;0.85" keyTimes="0;0.15;1" dur="0.6s" begin="4.22s" fill="freeze"/></rect><rect x="664" y="72" width="11" height="11" rx="2" fill="#5a1f1f" stroke="#2e1515" stroke-width="0.5"><animate attributeName="opacity" values="0.55;1;0.85" keyTimes="0;0.15;1" dur="0.6s" begin="4.22s" fill="freeze"/></rect><rect x="664" y="86" width="11" height="11" rx="2" fill="#5a1f1f" stroke="#2e1515" stroke-width="0.5"><animate attributeName="opacity" values="0.55;1;0.85" keyTimes="0;0.15;1" dur="0.6s" begin="4.22s" fill="freeze"/></rect><rect x="664" y="100" width="11" height="11" rx="2" fill="#5a1f1f" stroke="#2e1515" stroke-width="0.5"><animate attributeName="opacity" values="0.55;1;0.85" keyTimes="0;0.15;1" dur="0.6s" begin="4.22s" fill="freeze"/></rect><rect x="664" y="114" width="11" height="11" rx="2" fill="#5a1f1f" stroke="#2e1515" stroke-width="0.5"><animate attributeName="opacity" values="0.55;1;0.85" keyTimes="0;0.15;1" dur="0.6s" begin="4.22s" fill="freeze"/></rect><rect x="678" y="30" width="11" height="11" rx="2" fill="#5a1f1f" stroke="#2e1515" stroke-width="0.5"><animate attributeName="opacity" values="0.55;1;0.85" keyTimes="0;0.15;1" dur="0.6s" begin="4.31s" fill="freeze"/></rect><rect x="678" y="44" width="11" height="11" rx="2" fill="#8f2b2b" stroke="#2e1515" stroke-width="0.5"><animate attributeName="opacity" values="0.55;1;0.85" keyTimes="0;0.15;1" dur="0.6s" begin="4.31s" fill="freeze"/></rect><rect x="678" y="58" width="11" height="11" rx="2" fill="#ef4444" stroke="#2e1515" stroke-width="0.5"><animate attributeName="opacity" values="0.55;1;0.85" keyTimes="0;0.15;1" dur="0.6s" begin="4.31s" fill="freeze"/></rect><rect x="678" y="72" width="11" height="11" rx="2" fill="#5a1f1f" stroke="#2e1515" stroke-width="0.5"><animate attributeName="opacity" values="0.55;1;0.85" keyTimes="0;0.15;1" dur="0.6s" begin="4.31s" fill="freeze"/></rect><rect x="678" y="86" width="11" height="11" rx="2" fill="#5a1f1f" stroke="#2e1515" stroke-width="0.5"><animate attributeName="opacity" values="0.55;1;0.85" keyTimes="0;0.15;1" dur="0.6s" begin="4.31s" fill="freeze"/></rect><rect x="678" y="100" width="11" height="11" rx="2" fill="#5a1f1f" stroke="#2e1515" stroke-width="0.5"><animate attributeName="opacity" values="0.55;1;0.85" keyTimes="0;0.15;1" dur="0.6s" begin="4.31s" fill="freeze"/></rect><rect x="678" y="114" width="11" height="11" rx="2" fill="#5a1f1f" stroke="#2e1515" stroke-width="0.5"><animate attributeName="opacity" values="0.55;1;0.85" keyTimes="0;0.15;1" dur="0.6s" begin="4.31s" fill="freeze"/></rect><rect x="692" y="30" width="11" height="11" rx="2" fill="#5a1f1f" stroke="#2e1515" stroke-width="0.5"><animate attributeName="opacity" values="0.55;1;0.85" keyTimes="0;0.15;1" dur="0.6s" begin="4.4s" fill="freeze"/></rect><rect x="692" y="44" width="11" height="11" rx="2" fill="#5a1f1f" stroke="#2e1515" stroke-width="0.5"><animate attributeName="opacity" values="0.55;1;0.85" keyTimes="0;0.15;1" dur="0.6s" begin="4.4s" fill="freeze"/></rect><rect x="692" y="58" width="11" height="11" rx="2" fill="#5a1f1f" stroke="#2e1515" stroke-width="0.5"><animate attributeName="opacity" values="0.55;1;0.85" keyTimes="0;0.15;1" dur="0.6s" begin="4.4s" fill="freeze"/></rect><rect x="692" y="72" width="11" height="11" rx="2" fill="#1c0f0f" stroke="#2e1515" stroke-width="0.5"></rect><rect x="692" y="86" width="11" height="11" rx="2" fill="#8f2b2b" stroke="#2e1515" stroke-width="0.5"><animate attributeName="opacity" values="0.55;1;0.85" keyTimes="0;0.15;1" dur="0.6s" begin="4.4s" fill="freeze"/></rect><rect x="692" y="100" width="11" height="11" rx="2" fill="#5a1f1f" stroke="#2e1515" stroke-width="0.5"><animate attributeName="opacity" values="0.55;1;0.85" keyTimes="0;0.15;1" dur="0.6s" begin="4.4s" fill="freeze"/></rect><rect x="692" y="114" width="11" height="11" rx="2" fill="#5a1f1f" stroke="#2e1515" stroke-width="0.5"><animate attributeName="opacity" values="0.55;1;0.85" keyTimes="0;0.15;1" dur="0.6s" begin="4.4s" fill="freeze"/></rect><rect x="706" y="30" width="11" height="11" rx="2" fill="#5a1f1f" stroke="#2e1515" stroke-width="0.5"><animate attributeName="opacity" values="0.55;1;0.85" keyTimes="0;0.15;1" dur="0.6s" begin="4.49s" fill="freeze"/></rect><rect x="706" y="44" width="11" height="11" rx="2" fill="#5a1f1f" stroke="#2e1515" stroke-width="0.5"><animate attributeName="opacity" values="0.55;1;0.85" keyTimes="0;0.15;1" dur="0.6s" begin="4.49s" fill="freeze"/></rect><rect x="706" y="58" width="11" height="11" rx="2" fill="#5a1f1f" stroke="#2e1515" stroke-width="0.5"><animate attributeName="opacity" values="0.55;1;0.85" keyTimes="0;0.15;1" dur="0.6s" begin="4.49s" fill="freeze"/></rect><rect x="706" y="72" width="11" height="11" rx="2" fill="#5a1f1f" stroke="#2e1515" stroke-width="0.5"><animate attributeName="opacity" values="0.55;1;0.85" keyTimes="0;0.15;1" dur="0.6s" begin="4.49s" fill="freeze"/></rect><rect x="706" y="86" width="11" height="11" rx="2" fill="#5a1f1f" stroke="#2e1515" stroke-width="0.5"><animate attributeName="opacity" values="0.55;1;0.85" keyTimes="0;0.15;1" dur="0.6s" begin="4.49s" fill="freeze"/></rect><rect x="706" y="100" width="11" height="11" rx="2" fill="#5a1f1f" stroke="#2e1515" stroke-width="0.5"><animate attributeName="opacity" values="0.55;1;0.85" keyTimes="0;0.15;1" dur="0.6s" begin="4.49s" fill="freeze"/></rect><rect x="706" y="114" width="11" height="11" rx="2" fill="#5a1f1f" stroke="#2e1515" stroke-width="0.5"><animate attributeName="opacity" values="0.55;1;0.85" keyTimes="0;0.15;1" dur="0.6s" begin="4.49s" fill="freeze"/></rect><rect x="720" y="30" width="11" height="11" rx="2" fill="#5a1f1f" stroke="#2e1515" stroke-width="0.5"><animate attributeName="opacity" values="0.55;1;0.85" keyTimes="0;0.15;1" dur="0.6s" begin="4.59s" fill="freeze"/></rect><rect x="720" y="44" width="11" height="11" rx="2" fill="#5a1f1f" stroke="#2e1515" stroke-width="0.5"><animate attributeName="opacity" values="0.55;1;0.85" keyTimes="0;0.15;1" dur="0.6s" begin="4.59s" fill="freeze"/></rect><rect x="720" y="58" width="11" height="11" rx="2" fill="#5a1f1f" stroke="#2e1515" stroke-width="0.5"><animate attributeName="opacity" values="0.55;1;0.85" keyTimes="0;0.15;1" dur="0.6s" begin="4.59s" fill="freeze"/></rect><rect x="720" y="72" width="11" height="11" rx="2" fill="#5a1f1f" stroke="#2e1515" stroke-width="0.5"><animate attributeName="opacity" values="0.55;1;0.85" keyTimes="0;0.15;1" dur="0.6s" begin="4.59s" fill="freeze"/></rect><rect x="720" y="86" width="11" height="11" rx="2" fill="#5a1f1f" stroke="#2e1515" stroke-width="0.5"><animate attributeName="opacity" values="0.55;1;0.85" keyTimes="0;0.15;1" dur="0.6s" begin="4.59s" fill="freeze"/></rect><rect x="720" y="100" width="11" height="11" rx="2" fill="#1c0f0f" stroke="#2e1515" stroke-width="0.5"></rect><rect x="720" y="114" width="11" height="11" rx="2" fill="#1c0f0f" stroke="#2e1515" stroke-width="0.5"></rect><rect x="734" y="30" width="11" height="11" rx="2" fill="#1c0f0f" stroke="#2e1515" stroke-width="0.5"></rect><rect x="734" y="44" width="11" height="11" rx="2" fill="#1c0f0f" stroke="#2e1515" stroke-width="0.5"></rect><rect x="734" y="58" width="11" height="11" rx="2" fill="#1c0f0f" stroke="#2e1515" stroke-width="0.5"></rect><rect x="734" y="72" width="11" height="11" rx="2" fill="#1c0f0f" stroke="#2e1515" stroke-width="0.5"></rect><rect x="734" y="86" width="11" height="11" rx="2" fill="#1c0f0f" stroke="#2e1515" stroke-width="0.5"></rect><rect x="734" y="100" width="11" height="11" rx="2" fill="#1c0f0f" stroke="#2e1515" stroke-width="0.5"></rect><rect x="734" y="114" width="11" height="11" rx="2" fill="#1c0f0f" stroke="#2e1515" stroke-width="0.5"></rect><rect x="748" y="30" width="11" height="11" rx="2" fill="#1c0f0f" stroke="#2e1515" stroke-width="0.5"></rect><rect x="748" y="44" width="11" height="11" rx="2" fill="#5a1f1f" stroke="#2e1515" stroke-width="0.5"><animate attributeName="opacity" values="0.55;1;0.85" keyTimes="0;0.15;1" dur="0.6s" begin="4.77s" fill="freeze"/></rect><rect x="748" y="58" width="11" height="11" rx="2" fill="#1c0f0f" stroke="#2e1515" stroke-width="0.5"></rect><rect x="748" y="72" width="11" height="11" rx="2" fill="#ef4444" stroke="#2e1515" stroke-width="0.5"><animate attributeName="opacity" values="0.55;1;0.85" keyTimes="0;0.15;1" dur="0.6s" begin="4.77s" fill="freeze"/></rect><rect x="748" y="86" width="11" height="11" rx="2" fill="#8f2b2b" stroke="#2e1515" stroke-width="0.5"><animate attributeName="opacity" values="0.55;1;0.85" keyTimes="0;0.15;1" dur="0.6s" begin="4.77s" fill="freeze"/></rect><rect x="748" y="100" width="11" height="11" rx="2" fill="#1c0f0f" stroke="#2e1515" stroke-width="0.5"></rect>
  <rect x="19.5" y="24" width="12" height="104" fill="url(#beamGrad)">
    <animate attributeName="x" values="19.5;747.5" dur="4.77s" repeatCount="indefinite"/>
  </rect>
</svg>