<svg xmlns="http://www.w3.org/2000/svg" width="900" height="220">
<rect width="100%" height="100%" fill="#0d1117"/>
<circle cx="654" cy="28" r="1" fill="white" opacity="0.5"/>
<circle cx="25" cy="189" r="1" fill="white" opacity="0.5"/>
<circle cx="281" cy="62" r="1" fill="white" opacity="0.5"/>
<circle cx="228" cy="35" r="1" fill="white" opacity="0.5"/>
<circle cx="754" cy="26" r="1" fill="white" opacity="0.5"/>
<circle cx="692" cy="189" r="1" fill="white" opacity="0.5"/>
<circle cx="558" cy="22" r="1" fill="white" opacity="0.5"/>
<circle cx="604" cy="108" r="1" fill="white" opacity="0.5"/>
<circle cx="32" cy="7" r="1" fill="white" opacity="0.5"/>
<circle cx="95" cy="55" r="1" fill="white" opacity="0.5"/>
<circle cx="238" cy="129" r="1" fill="white" opacity="0.5"/>
<circle cx="616" cy="6" r="1" fill="white" opacity="0.5"/>
<circle cx="574" cy="50" r="1" fill="white" opacity="0.5"/>
<circle cx="733" cy="166" r="1" fill="white" opacity="0.5"/>
<circle cx="718" cy="139" r="1" fill="white" opacity="0.5"/>
<circle cx="429" cy="56" r="1" fill="white" opacity="0.5"/>
<circle cx="459" cy="150" r="1" fill="white" opacity="0.5"/>
<circle cx="284" cy="207" r="1" fill="white" opacity="0.5"/>
<circle cx="890" cy="1" r="1" fill="white" opacity="0.5"/>
<circle cx="777" cy="206" r="1" fill="white" opacity="0.5"/>
<circle cx="163" cy="178" r="1" fill="white" opacity="0.5"/>
<circle cx="432" cy="87" r="1" fill="white" opacity="0.5"/>
<circle cx="284" cy="39" r="1" fill="white" opacity="0.5"/>
<circle cx="220" cy="195" r="1" fill="white" opacity="0.5"/>
<circle cx="344" cy="26" r="1" fill="white" opacity="0.5"/>
<circle cx="94" cy="97" r="1" fill="white" opacity="0.5"/>
<circle cx="99" cy="91" r="1" fill="white" opacity="0.5"/>
<circle cx="867" cy="88" r="1" fill="white" opacity="0.5"/>
<circle cx="618" cy="67" r="1" fill="white" opacity="0.5"/>
<circle cx="826" cy="11" r="1" fill="white" opacity="0.5"/>
<circle cx="747" cy="117" r="1" fill="white" opacity="0.5"/>
<circle cx="549" cy="31" r="1" fill="white" opacity="0.5"/>
<circle cx="387" cy="20" r="1" fill="white" opacity="0.5"/>
<circle cx="565" cy="75" r="1" fill="white" opacity="0.5"/>
<circle cx="849" cy="160" r="1" fill="white" opacity="0.5"/>
<circle cx="633" cy="220" r="1" fill="white" opacity="0.5"/>
<circle cx="370" cy="147" r="1" fill="white" opacity="0.5"/>
<circle cx="196" cy="180" r="1" fill="white" opacity="0.5"/>
<circle cx="71" cy="11" r="1" fill="white" opacity="0.5"/>
<circle cx="677" cy="58" r="1" fill="white" opacity="0.5"/>
<circle cx="791" cy="74" r="1" fill="white" opacity="0.5"/>
<circle cx="81" cy="218" r="1" fill="white" opacity="0.5"/>
<circle cx="238" cy="25" r="1" fill="white" opacity="0.5"/>
<circle cx="389" cy="71" r="1" fill="white" opacity="0.5"/>
<circle cx="464" cy="162" r="1" fill="white" opacity="0.5"/>
<circle cx="854" cy="93" r="1" fill="white" opacity="0.5"/>
<circle cx="166" cy="94" r="1" fill="white" opacity="0.5"/>
<circle cx="363" cy="53" r="1" fill="white" opacity="0.5"/>
<circle cx="686" cy="68" r="1" fill="white" opacity="0.5"/>
<circle cx="718" cy="174" r="1" fill="white" opacity="0.5"/>
<rect x="50" y="30" width="10" height="10" rx="2" fill="#161b22"/>
<rect x="50" y="43" width="10" height="10" rx="2" fill="#161b22"/>
<rect x="50" y="56" width="10" height="10" rx="2" fill="#161b22"/>
<rect x="50" y="69" width="10" height="10" rx="2" fill="#161b22"/>
<rect x="50" y="82" width="10" height="10" rx="2" fill="#161b22"/>
<rect x="50" y="95" width="10" height="10" rx="2" fill="#161b22"/>
<rect x="50" y="108" width="10" height="10" rx="2" fill="#161b22"/>
<rect x="63" y="30" width="10" height="10" rx="2" fill="#161b22"/>
<rect x="63" y="43" width="10" height="10" rx="2" fill="#161b22"/>
<rect x="63" y="56" width="10" height="10" rx="2" fill="#161b22"/>
<rect x="63" y="69" width="10" height="10" rx="2" fill="#161b22"/>
<rect x="63" y="82" width="10" height="10" rx="2" fill="#161b22"/>
<rect x="63" y="95" width="10" height="10" rx="2" fill="#161b22"/>
<rect x="63" y="108" width="10" height="10" rx="2" fill="#161b22"/>
<rect x="76" y="30" width="10" height="10" rx="2" fill="#161b22"/>
<rect x="76" y="43" width="10" height="10" rx="2" fill="#161b22"/>
<rect x="76" y="56" width="10" height="10" rx="2" fill="#161b22"/>
<rect x="76" y="69" width="10" height="10" rx="2" fill="#161b22"/>
<rect x="76" y="82" width="10" height="10" rx="2" fill="#161b22"/>
<rect x="76" y="95" width="10" height="10" rx="2" fill="#161b22"/>
<rect x="76" y="108" width="10" height="10" rx="2" fill="#161b22"/>
<rect x="89" y="30" width="10" height="10" rx="2" fill="#161b22"/>
<rect x="89" y="43" width="10" height="10" rx="2" fill="#161b22"/>
<rect x="89" y="56" width="10" height="10" rx="2" fill="#161b22"/>
<rect x="89" y="69" width="10" height="10" rx="2" fill="#161b22"/>
<rect x="89" y="82" width="10" height="10" rx="2" fill="#161b22"/>
<rect x="89" y="95" width="10" height="10" rx="2" fill="#161b22"/>
<rect x="89" y="108" width="10" height="10" rx="2" fill="#161b22"/>
<rect x="102" y="30" width="10" height="10" rx="2" fill="#161b22"/>
<rect x="102" y="43" width="10" height="10" rx="2" fill="#161b22"/>
<rect x="102" y="56" width="10" height="10" rx="2" fill="#161b22"/>
<rect x="102" y="69" width="10" height="10" rx="2" fill="#161b22"/>
<rect x="102" y="82" width="10" height="10" rx="2" fill="#161b22"/>
<rect x="102" y="95" width="10" height="10" rx="2" fill="#161b22"/>
<rect x="102" y="108" width="10" height="10" rx="2" fill="#161b22"/>
<rect x="115" y="30" width="10" height="10" rx="2" fill="#161b22"/>
<rect x="115" y="43" width="10" height="10" rx="2" fill="#161b22"/>
<rect x="115" y="56" width="10" height="10" rx="2" fill="#161b22"/>
<rect x="115" y="69" width="10" height="10" rx="2" fill="#161b22"/>
<rect x="115" y="82" width="10" height="10" rx="2" fill="#161b22"/>
<rect x="115" y="95" width="10" height="10" rx="2" fill="#161b22"/>
<rect x="115" y="108" width="10" height="10" rx="2" fill="#161b22"/>
<rect x="128" y="30" width="10" height="10" rx="2" fill="#161b22"/>
<rect x="128" y="43" width="10" height="10" rx="2" fill="#161b22"/>
<rect x="128" y="56" width="10" height="10" rx="2" fill="#161b22"/>
<rect x="128" y="69" width="10" height="10" rx="2" fill="#161b22"/>
<rect x="128" y="82" width="10" height="10" rx="2" fill="#161b22"/>
<rect x="128" y="95" width="10" height="10" rx="2" fill="#161b22"/>
<rect x="128" y="108" width="10" height="10" rx="2" fill="#161b22"/>
<rect x="141" y="30" width="10" height="10" rx="2" fill="#161b22"/>
<rect x="141" y="43" width="10" height="10" rx="2" fill="#161b22"/>
<rect x="141" y="56" width="10" height="10" rx="2" fill="#161b22"/>
<rect x="141" y="69" width="10" height="10" rx="2" fill="#161b22"/>
<rect x="141" y="82" width="10" height="10" rx="2" fill="#161b22"/>
<rect x="141" y="95" width="10" height="10" rx="2" fill="#0e4429"/>
<rect x="141" y="108" width="10" height="10" rx="2" fill="#161b22"/>
<rect x="154" y="30" width="10" height="10" rx="2" fill="#161b22"/>
<rect x="154" y="43" width="10" height="10" rx="2" fill="#161b22"/>
<rect x="154" y="56" width="10" height="10" rx="2" fill="#161b22"/>
<rect x="154" y="69" width="10" height="10" rx="2" fill="#161b22"/>
<rect x="154" y="82" width="10" height="10" rx="2" fill="#161b22"/>
<rect x="154" y="95" width="10" height="10" rx="2" fill="#161b22"/>
<rect x="154" y="108" width="10" height="10" rx="2" fill="#161b22"/>
<rect x="167" y="30" width="10" height="10" rx="2" fill="#161b22"/>
<rect x="167" y="43" width="10" height="10" rx="2" fill="#161b22"/>
<rect x="167" y="56" width="10" height="10" rx="2" fill="#161b22"/>
<rect x="167" y="69" width="10" height="10" rx="2" fill="#161b22"/>
<rect x="167" y="82" width="10" height="10" rx="2" fill="#161b22"/>
<rect x="167" y="95" width="10" height="10" rx="2" fill="#161b22"/>
<rect x="167" y="108" width="10" height="10" rx="2" fill="#161b22"/>
<rect x="180" y="30" width="10" height="10" rx="2" fill="#161b22"/>
<rect x="180" y="43" width="10" height="10" rx="2" fill="#161b22"/>
<rect x="180" y="56" width="10" height="10" rx="2" fill="#161b22"/>
<rect x="180" y="69" width="10" height="10" rx="2" fill="#161b22"/>
<rect x="180" y="82" width="10" height="10" rx="2" fill="#161b22"/>
<rect x="180" y="95" width="10" height="10" rx="2" fill="#161b22"/>
<rect x="180" y="108" width="10" height="10" rx="2" fill="#161b22"/>
<rect x="193" y="30" width="10" height="10" rx="2" fill="#161b22"/>
<rect x="193" y="43" width="10" height="10" rx="2" fill="#161b22"/>
<rect x="193" y="56" width="10" height="10" rx="2" fill="#161b22"/>
<rect x="193" y="69" width="10" height="10" rx="2" fill="#161b22"/>
<rect x="193" y="82" width="10" height="10" rx="2" fill="#161b22"/>
<rect x="193" y="95" width="10" height="10" rx="2" fill="#161b22"/>
<rect x="193" y="108" width="10" height="10" rx="2" fill="#161b22"/>
<rect x="206" y="30" width="10" height="10" rx="2" fill="#161b22"/>
<rect x="206" y="43" width="10" height="10" rx="2" fill="#161b22"/>
<rect x="206" y="56" width="10" height="10" rx="2" fill="#161b22"/>
<rect x="206" y="69" width="10" height="10" rx="2" fill="#161b22"/>
<rect x="206" y="82" width="10" height="10" rx="2" fill="#161b22"/>
<rect x="206" y="95" width="10" height="10" rx="2" fill="#161b22"/>
<rect x="206" y="108" width="10" height="10" rx="2" fill="#161b22"/>
<rect x="219" y="30" width="10" height="10" rx="2" fill="#161b22"/>
<rect x="219" y="43" width="10" height="10" rx="2" fill="#161b22"/>
<rect x="219" y="56" width="10" height="10" rx="2" fill="#161b22"/>
<rect x="219" y="69" width="10" height="10" rx="2" fill="#161b22"/>
<rect x="219" y="82" width="10" height="10" rx="2" fill="#161b22"/>
<rect x="219" y="95" width="10" height="10" rx="2" fill="#161b22"/>
<rect x="219" y="108" width="10" height="10" rx="2" fill="#161b22"/>
<rect x="232" y="30" width="10" height="10" rx="2" fill="#161b22"/>
<rect x="232" y="43" width="10" height="10" rx="2" fill="#161b22"/>
<rect x="232" y="56" width="10" height="10" rx="2" fill="#161b22"/>
<rect x="232" y="69" width="10" height="10" rx="2" fill="#161b22"/>
<rect x="232" y="82" width="10" height="10" rx="2" fill="#161b22"/>
<rect x="232" y="95" width="10" height="10" rx="2" fill="#161b22"/>
<rect x="232" y="108" width="10" height="10" rx="2" fill="#161b22"/>
<rect x="245" y="30" width="10" height="10" rx="2" fill="#161b22"/>
<rect x="245" y="43" width="10" height="10" rx="2" fill="#161b22"/>
<rect x="245" y="56" width="10" height="10" rx="2" fill="#161b22"/>
<rect x="245" y="69" width="10" height="10" rx="2" fill="#161b22"/>
<rect x="245" y="82" width="10" height="10" rx="2" fill="#161b22"/>
<rect x="245" y="95" width="10" height="10" rx="2" fill="#161b22"/>
<rect x="245" y="108" width="10" height="10" rx="2" fill="#161b22"/>
<rect x="258" y="30" width="10" height="10" rx="2" fill="#161b22"/>
<rect x="258" y="43" width="10" height="10" rx="2" fill="#161b22"/>
<rect x="258" y="56" width="10" height="10" rx="2" fill="#161b22"/>
<rect x="258" y="69" width="10" height="10" rx="2" fill="#161b22"/>
<rect x="258" y="82" width="10" height="10" rx="2" fill="#161b22"/>
<rect x="258" y="95" width="10" height="10" rx="2" fill="#161b22"/>
<rect x="258" y="108" width="10" height="10" rx="2" fill="#161b22"/>
<rect x="271" y="30" width="10" height="10" rx="2" fill="#161b22"/>
<rect x="271" y="43" width="10" height="10" rx="2" fill="#161b22"/>
<rect x="271" y="56" width="10" height="10" rx="2" fill="#161b22"/>
<rect x="271" y="69" width="10" height="10" rx="2" fill="#161b22"/>
<rect x="271" y="82" width="10" height="10" rx="2" fill="#161b22"/>
<rect x="271" y="95" width="10" height="10" rx="2" fill="#161b22"/>
<rect x="271" y="108" width="10" height="10" rx="2" fill="#161b22"/>
<rect x="284" y="30" width="10" height="10" rx="2" fill="#161b22"/>
<rect x="284" y="43" width="10" height="10" rx="2" fill="#161b22"/>
<rect x="284" y="56" width="10" height="10" rx="2" fill="#161b22"/>
<rect x="284" y="69" width="10" height="10" rx="2" fill="#161b22"/>
<rect x="284" y="82" width="10" height="10" rx="2" fill="#161b22"/>
<rect x="284" y="95" width="10" height="10" rx="2" fill="#161b22"/>
<rect x="284" y="108" width="10" height="10" rx="2" fill="#161b22"/>
<rect x="297" y="30" width="10" height="10" rx="2" fill="#161b22"/>
<rect x="297" y="43" width="10" height="10" rx="2" fill="#161b22"/>
<rect x="297" y="56" width="10" height="10" rx="2" fill="#161b22"/>
<rect x="297" y="69" width="10" height="10" rx="2" fill="#161b22"/>
<rect x="297" y="82" width="10" height="10" rx="2" fill="#161b22"/>
<rect x="297" y="95" width="10" height="10" rx="2" fill="#161b22"/>
<rect x="297" y="108" width="10" height="10" rx="2" fill="#161b22"/>
<rect x="310" y="30" width="10" height="10" rx="2" fill="#161b22"/>
<rect x="310" y="43" width="10" height="10" rx="2" fill="#161b22"/>
<rect x="310" y="56" width="10" height="10" rx="2" fill="#161b22"/>
<rect x="310" y="69" width="10" height="10" rx="2" fill="#161b22"/>
<rect x="310" y="82" width="10" height="10" rx="2" fill="#161b22"/>
<rect x="310" y="95" width="10" height="10" rx="2" fill="#161b22"/>
<rect x="310" y="108" width="10" height="10" rx="2" fill="#161b22"/>
<rect x="323" y="30" width="10" height="10" rx="2" fill="#161b22"/>
<rect x="323" y="43" width="10" height="10" rx="2" fill="#161b22"/>
<rect x="323" y="56" width="10" height="10" rx="2" fill="#161b22"/>
<rect x="323" y="69" width="10" height="10" rx="2" fill="#161b22"/>
<rect x="323" y="82" width="10" height="10" rx="2" fill="#161b22"/>
<rect x="323" y="95" width="10" height="10" rx="2" fill="#161b22"/>
<rect x="323" y="108" width="10" height="10" rx="2" fill="#161b22"/>
<rect x="336" y="30" width="10" height="10" rx="2" fill="#161b22"/>
<rect x="336" y="43" width="10" height="10" rx="2" fill="#161b22"/>
<rect x="336" y="56" width="10" height="10" rx="2" fill="#161b22"/>
<rect x="336" y="69" width="10" height="10" rx="2" fill="#161b22"/>
<rect x="336" y="82" width="10" height="10" rx="2" fill="#161b22"/>
<rect x="336" y="95" width="10" height="10" rx="2" fill="#161b22"/>
<rect x="336" y="108" width="10" height="10" rx="2" fill="#161b22"/>
<rect x="349" y="30" width="10" height="10" rx="2" fill="#161b22"/>
<rect x="349" y="43" width="10" height="10" rx="2" fill="#161b22"/>
<rect x="349" y="56" width="10" height="10" rx="2" fill="#161b22"/>
<rect x="349" y="69" width="10" height="10" rx="2" fill="#161b22"/>
<rect x="349" y="82" width="10" height="10" rx="2" fill="#161b22"/>
<rect x="349" y="95" width="10" height="10" rx="2" fill="#161b22"/>
<rect x="349" y="108" width="10" height="10" rx="2" fill="#161b22"/>
<rect x="362" y="30" width="10" height="10" rx="2" fill="#161b22"/>
<rect x="362" y="43" width="10" height="10" rx="2" fill="#161b22"/>
<rect x="362" y="56" width="10" height="10" rx="2" fill="#161b22"/>
<rect x="362" y="69" width="10" height="10" rx="2" fill="#161b22"/>
<rect x="362" y="82" width="10" height="10" rx="2" fill="#161b22"/>
<rect x="362" y="95" width="10" height="10" rx="2" fill="#161b22"/>
<rect x="362" y="108" width="10" height="10" rx="2" fill="#161b22"/>
<rect x="375" y="30" width="10" height="10" rx="2" fill="#161b22"/>
<rect x="375" y="43" width="10" height="10" rx="2" fill="#161b22"/>
<rect x="375" y="56" width="10" height="10" rx="2" fill="#161b22"/>
<rect x="375" y="69" width="10" height="10" rx="2" fill="#161b22"/>
<rect x="375" y="82" width="10" height="10" rx="2" fill="#161b22"/>
<rect x="375" y="95" width="10" height="10" rx="2" fill="#161b22"/>
<rect x="375" y="108" width="10" height="10" rx="2" fill="#161b22"/>
<rect x="388" y="30" width="10" height="10" rx="2" fill="#161b22"/>
<rect x="388" y="43" width="10" height="10" rx="2" fill="#161b22"/>
<rect x="388" y="56" width="10" height="10" rx="2" fill="#161b22"/>
<rect x="388" y="69" width="10" height="10" rx="2" fill="#161b22"/>
<rect x="388" y="82" width="10" height="10" rx="2" fill="#161b22"/>
<rect x="388" y="95" width="10" height="10" rx="2" fill="#161b22"/>
<rect x="388" y="108" width="10" height="10" rx="2" fill="#161b22"/>
<rect x="401" y="30" width="10" height="10" rx="2" fill="#161b22"/>
<rect x="401" y="43" width="10" height="10" rx="2" fill="#161b22"/>
<rect x="401" y="56" width="10" height="10" rx="2" fill="#161b22"/>
<rect x="401" y="69" width="10" height="10" rx="2" fill="#161b22"/>
<rect x="401" y="82" width="10" height="10" rx="2" fill="#161b22"/>
<rect x="401" y="95" width="10" height="10" rx="2" fill="#161b22"/>
<rect x="401" y="108" width="10" height="10" rx="2" fill="#161b22"/>
<rect x="414" y="30" width="10" height="10" rx="2" fill="#161b22"/>
<rect x="414" y="43" width="10" height="10" rx="2" fill="#161b22"/>
<rect x="414" y="56" width="10" height="10" rx="2" fill="#161b22"/>
<rect x="414" y="69" width="10" height="10" rx="2" fill="#161b22"/>
<rect x="414" y="82" width="10" height="10" rx="2" fill="#161b22"/>
<rect x="414" y="95" width="10" height="10" rx="2" fill="#161b22"/>
<rect x="414" y="108" width="10" height="10" rx="2" fill="#161b22"/>
<rect x="427" y="30" width="10" height="10" rx="2" fill="#161b22"/>
<rect x="427" y="43" width="10" height="10" rx="2" fill="#161b22"/>
<rect x="427" y="56" width="10" height="10" rx="2" fill="#161b22"/>
<rect x="427" y="69" width="10" height="10" rx="2" fill="#161b22"/>
<rect x="427" y="82" width="10" height="10" rx="2" fill="#161b22"/>
<rect x="427" y="95" width="10" height="10" rx="2" fill="#161b22"/>
<rect x="427" y="108" width="10" height="10" rx="2" fill="#161b22"/>
<rect x="440" y="30" width="10" height="10" rx="2" fill="#161b22"/>
<rect x="440" y="43" width="10" height="10" rx="2" fill="#161b22"/>
<rect x="440" y="56" width="10" height="10" rx="2" fill="#161b22"/>
<rect x="440" y="69" width="10" height="10" rx="2" fill="#161b22"/>
<rect x="440" y="82" width="10" height="10" rx="2" fill="#161b22"/>
<rect x="440" y="95" width="10" height="10" rx="2" fill="#161b22"/>
<rect x="440" y="108" width="10" height="10" rx="2" fill="#161b22"/>
<rect x="453" y="30" width="10" height="10" rx="2" fill="#161b22"/>
<rect x="453" y="43" width="10" height="10" rx="2" fill="#161b22"/>
<rect x="453" y="56" width="10" height="10" rx="2" fill="#161b22"/>
<rect x="453" y="69" width="10" height="10" rx="2" fill="#161b22"/>
<rect x="453" y="82" width="10" height="10" rx="2" fill="#161b22"/>
<rect x="453" y="95" width="10" height="10" rx="2" fill="#161b22"/>
<rect x="453" y="108" width="10" height="10" rx="2" fill="#161b22"/>
<rect x="466" y="30" width="10" height="10" rx="2" fill="#161b22"/>
<rect x="466" y="43" width="10" height="10" rx="2" fill="#161b22"/>
<rect x="466" y="56" width="10" height="10" rx="2" fill="#161b22"/>
<rect x="466" y="69" width="10" height="10" rx="2" fill="#161b22"/>
<rect x="466" y="82" width="10" height="10" rx="2" fill="#161b22"/>
<rect x="466" y="95" width="10" height="10" rx="2" fill="#161b22"/>
<rect x="466" y="108" width="10" height="10" rx="2" fill="#161b22"/>
<rect x="479" y="30" width="10" height="10" rx="2" fill="#161b22"/>
<rect x="479" y="43" width="10" height="10" rx="2" fill="#161b22"/>
<rect x="479" y="56" width="10" height="10" rx="2" fill="#161b22"/>
<rect x="479" y="69" width="10" height="10" rx="2" fill="#161b22"/>
<rect x="479" y="82" width="10" height="10" rx="2" fill="#161b22"/>
<rect x="479" y="95" width="10" height="10" rx="2" fill="#161b22"/>
<rect x="479" y="108" width="10" height="10" rx="2" fill="#161b22"/>
<rect x="492" y="30" width="10" height="10" rx="2" fill="#161b22"/>
<rect x="492" y="43" width="10" height="10" rx="2" fill="#161b22"/>
<rect x="492" y="56" width="10" height="10" rx="2" fill="#161b22"/>
<rect x="492" y="69" width="10" height="10" rx="2" fill="#161b22"/>
<rect x="492" y="82" width="10" height="10" rx="2" fill="#161b22"/>
<rect x="492" y="95" width="10" height="10" rx="2" fill="#161b22"/>
<rect x="492" y="108" width="10" height="10" rx="2" fill="#161b22"/>
<rect x="505" y="30" width="10" height="10" rx="2" fill="#161b22"/>
<rect x="505" y="43" width="10" height="10" rx="2" fill="#161b22"/>
<rect x="505" y="56" width="10" height="10" rx="2" fill="#006d32"/>
<rect x="505" y="69" width="10" height="10" rx="2" fill="#006d32"/>
<rect x="505" y="82" width="10" height="10" rx="2" fill="#161b22"/>
<rect x="505" y="95" width="10" height="10" rx="2" fill="#161b22"/>
<rect x="505" y="108" width="10" height="10" rx="2" fill="#161b22"/>
<rect x="518" y="30" width="10" height="10" rx="2" fill="#0e4429"/>
<rect x="518" y="43" width="10" height="10" rx="2" fill="#0e4429"/>
<rect x="518" y="56" width="10" height="10" rx="2" fill="#161b22"/>
<rect x="518" y="69" width="10" height="10" rx="2" fill="#161b22"/>
<rect x="518" y="82" width="10" height="10" rx="2" fill="#0e4429"/>
<rect x="518" y="95" width="10" height="10" rx="2" fill="#161b22"/>
<rect x="518" y="108" width="10" height="10" rx="2" fill="#161b22"/>
<rect x="531" y="30" width="10" height="10" rx="2" fill="#161b22"/>
<rect x="531" y="43" width="10" height="10" rx="2" fill="#161b22"/>
<rect x="531" y="56" width="10" height="10" rx="2" fill="#161b22"/>
<rect x="531" y="69" width="10" height="10" rx="2" fill="#161b22"/>
<rect x="531" y="82" width="10" height="10" rx="2" fill="#161b22"/>
<rect x="531" y="95" width="10" height="10" rx="2" fill="#161b22"/>
<rect x="531" y="108" width="10" height="10" rx="2" fill="#161b22"/>
<rect x="544" y="30" width="10" height="10" rx="2" fill="#161b22"/>
<rect x="544" y="43" width="10" height="10" rx="2" fill="#161b22"/>
<rect x="544" y="56" width="10" height="10" rx="2" fill="#161b22"/>
<rect x="544" y="69" width="10" height="10" rx="2" fill="#161b22"/>
<rect x="544" y="82" width="10" height="10" rx="2" fill="#161b22"/>
<rect x="544" y="95" width="10" height="10" rx="2" fill="#161b22"/>
<rect x="544" y="108" width="10" height="10" rx="2" fill="#161b22"/>
<rect x="557" y="30" width="10" height="10" rx="2" fill="#161b22"/>
<rect x="557" y="43" width="10" height="10" rx="2" fill="#161b22"/>
<rect x="557" y="56" width="10" height="10" rx="2" fill="#161b22"/>
<rect x="557" y="69" width="10" height="10" rx="2" fill="#161b22"/>
<rect x="557" y="82" width="10" height="10" rx="2" fill="#161b22"/>
<rect x="557" y="95" width="10" height="10" rx="2" fill="#161b22"/>
<rect x="557" y="108" width="10" height="10" rx="2" fill="#161b22"/>
<rect x="570" y="30" width="10" height="10" rx="2" fill="#161b22"/>
<rect x="570" y="43" width="10" height="10" rx="2" fill="#161b22"/>
<rect x="570" y="56" width="10" height="10" rx="2" fill="#161b22"/>
<rect x="570" y="69" width="10" height="10" rx="2" fill="#161b22"/>
<rect x="570" y="82" width="10" height="10" rx="2" fill="#161b22"/>
<rect x="570" y="95" width="10" height="10" rx="2" fill="#161b22"/>
<rect x="570" y="108" width="10" height="10" rx="2" fill="#161b22"/>
<rect x="583" y="30" width="10" height="10" rx="2" fill="#161b22"/>
<rect x="583" y="43" width="10" height="10" rx="2" fill="#0e4429"/>
<rect x="583" y="56" width="10" height="10" rx="2" fill="#161b22"/>
<rect x="583" y="69" width="10" height="10" rx="2" fill="#161b22"/>
<rect x="583" y="82" width="10" height="10" rx="2" fill="#161b22"/>
<rect x="583" y="95" width="10" height="10" rx="2" fill="#161b22"/>
<rect x="583" y="108" width="10" height="10" rx="2" fill="#161b22"/>
<rect x="596" y="30" width="10" height="10" rx="2" fill="#161b22"/>
<rect x="596" y="43" width="10" height="10" rx="2" fill="#161b22"/>
<rect x="596" y="56" width="10" height="10" rx="2" fill="#161b22"/>
<rect x="596" y="69" width="10" height="10" rx="2" fill="#006d32"/>
<rect x="596" y="82" width="10" height="10" rx="2" fill="#161b22"/>
<rect x="596" y="95" width="10" height="10" rx="2" fill="#161b22"/>
<rect x="596" y="108" width="10" height="10" rx="2" fill="#161b22"/>
<rect x="609" y="30" width="10" height="10" rx="2" fill="#161b22"/>
<rect x="609" y="43" width="10" height="10" rx="2" fill="#0e4429"/>
<rect x="609" y="56" width="10" height="10" rx="2" fill="#0e4429"/>
<rect x="609" y="69" width="10" height="10" rx="2" fill="#161b22"/>
<rect x="609" y="82" width="10" height="10" rx="2" fill="#161b22"/>
<rect x="609" y="95" width="10" height="10" rx="2" fill="#161b22"/>
<rect x="609" y="108" width="10" height="10" rx="2" fill="#161b22"/>
<rect x="622" y="30" width="10" height="10" rx="2" fill="#161b22"/>
<rect x="622" y="43" width="10" height="10" rx="2" fill="#161b22"/>
<rect x="622" y="56" width="10" height="10" rx="2" fill="#161b22"/>
<rect x="622" y="69" width="10" height="10" rx="2" fill="#161b22"/>
<rect x="622" y="82" width="10" height="10" rx="2" fill="#161b22"/>
<rect x="622" y="95" width="10" height="10" rx="2" fill="#161b22"/>
<rect x="622" y="108" width="10" height="10" rx="2" fill="#161b22"/>
<rect x="635" y="30" width="10" height="10" rx="2" fill="#161b22"/>
<rect x="635" y="43" width="10" height="10" rx="2" fill="#161b22"/>
<rect x="635" y="56" width="10" height="10" rx="2" fill="#161b22"/>
<rect x="635" y="69" width="10" height="10" rx="2" fill="#161b22"/>
<rect x="635" y="82" width="10" height="10" rx="2" fill="#161b22"/>
<rect x="635" y="95" width="10" height="10" rx="2" fill="#006d32"/>
<rect x="635" y="108" width="10" height="10" rx="2" fill="#161b22"/>
<rect x="648" y="30" width="10" height="10" rx="2" fill="#161b22"/>
<rect x="648" y="43" width="10" height="10" rx="2" fill="#006d32"/>
<rect x="648" y="56" width="10" height="10" rx="2" fill="#161b22"/>
<rect x="648" y="69" width="10" height="10" rx="2" fill="#161b22"/>
<rect x="648" y="82" width="10" height="10" rx="2" fill="#161b22"/>
<rect x="648" y="95" width="10" height="10" rx="2" fill="#161b22"/>
<rect x="648" y="108" width="10" height="10" rx="2" fill="#161b22"/>
<rect x="661" y="30" width="10" height="10" rx="2" fill="#161b22"/>
<rect x="661" y="43" width="10" height="10" rx="2" fill="#161b22"/>
<rect x="661" y="56" width="10" height="10" rx="2" fill="#161b22"/>
<rect x="661" y="69" width="10" height="10" rx="2" fill="#161b22"/>
<rect x="661" y="82" width="10" height="10" rx="2" fill="#161b22"/>
<rect x="661" y="95" width="10" height="10" rx="2" fill="#161b22"/>
<rect x="661" y="108" width="10" height="10" rx="2" fill="#161b22"/>
<rect x="674" y="30" width="10" height="10" rx="2" fill="#161b22"/>
<rect x="674" y="43" width="10" height="10" rx="2" fill="#161b22"/>
<rect x="674" y="56" width="10" height="10" rx="2" fill="#0e4429"/>
<rect x="674" y="69" width="10" height="10" rx="2" fill="#161b22"/>
<rect x="674" y="82" width="10" height="10" rx="2" fill="#161b22"/>
<rect x="674" y="95" width="10" height="10" rx="2" fill="#161b22"/>
<rect x="674" y="108" width="10" height="10" rx="2" fill="#161b22"/>
<rect x="687" y="30" width="10" height="10" rx="2" fill="#161b22"/>
<rect x="687" y="43" width="10" height="10" rx="2" fill="#0e4429"/>
<rect x="687" y="56" width="10" height="10" rx="2" fill="#006d32"/>
<rect x="687" y="69" width="10" height="10" rx="2" fill="#161b22"/>
<rect x="687" y="82" width="10" height="10" rx="2" fill="#161b22"/>
<rect x="687" y="95" width="10" height="10" rx="2" fill="#161b22"/>
<rect x="687" y="108" width="10" height="10" rx="2" fill="#161b22"/>
<rect x="700" y="30" width="10" height="10" rx="2" fill="#161b22"/>
<rect x="700" y="43" width="10" height="10" rx="2" fill="#161b22"/>
<rect x="700" y="56" width="10" height="10" rx="2" fill="#161b22"/>
<rect x="700" y="69" width="10" height="10" rx="2" fill="#161b22"/>
<rect x="700" y="82" width="10" height="10" rx="2" fill="#161b22"/>
<rect x="700" y="95" width="10" height="10" rx="2" fill="#161b22"/>
<rect x="700" y="108" width="10" height="10" rx="2" fill="#161b22"/>
<rect x="713" y="30" width="10" height="10" rx="2" fill="#161b22"/>
<rect x="713" y="43" width="10" height="10" rx="2" fill="#161b22"/>
<rect x="713" y="56" width="10" height="10" rx="2" fill="#161b22"/>
<rect x="713" y="69" width="10" height="10" rx="2" fill="#161b22"/>
<rect x="713" y="82" width="10" height="10" rx="2" fill="#161b22"/>
<rect x="713" y="95" width="10" height="10" rx="2" fill="#161b22"/>
<rect x="713" y="108" width="10" height="10" rx="2" fill="#161b22"/>
<rect x="726" y="30" width="10" height="10" rx="2" fill="#0e4429"/>
<rect x="726" y="43" width="10" height="10" rx="2" fill="#161b22"/>
<rect x="726" y="56" width="10" height="10" rx="2" fill="#161b22"/>
<rect x="726" y="69" width="10" height="10" rx="2" fill="#161b22"/>
<rect x="726" y="82" width="10" height="10" rx="2" fill="#39d353"/>

    <g>
        <polygon points="760,140 790,130 790,150" fill="#8b5cf6"/>
        <circle cx="780" cy="140" r="4" fill="#22c55e"/>
    </g>
    

        <circle cx="760" cy="140" r="3" fill="#facc15">
            <animate attributeName="cx" from="760" to="679" dur="0.5s" begin="1.5s" fill="freeze"/>
            <animate attributeName="cy" from="140" to="61" dur="0.5s" begin="1.5s" fill="freeze"/>
        </circle>
        

        <circle cx="760" cy="140" r="3" fill="#facc15">
            <animate attributeName="cx" from="760" to="692" dur="0.5s" begin="1.9s" fill="freeze"/>
            <animate attributeName="cy" from="140" to="48" dur="0.5s" begin="1.9s" fill="freeze"/>
        </circle>
        

        <circle cx="760" cy="140" r="3" fill="#facc15">
            <animate attributeName="cx" from="760" to="692" dur="0.5s" begin="2.3s" fill="freeze"/>
            <animate attributeName="cy" from="140" to="61" dur="0.5s" begin="2.3s" fill="freeze"/>
        </circle>
        

        <circle cx="760" cy="140" r="3" fill="#facc15">
            <animate attributeName="cx" from="760" to="731" dur="0.5s" begin="2.7s" fill="freeze"/>
            <animate attributeName="cy" from="140" to="35" dur="0.5s" begin="2.7s" fill="freeze"/>
        </circle>
        

        <circle cx="760" cy="140" r="3" fill="#facc15">
            <animate attributeName="cx" from="760" to="731" dur="0.5s" begin="3.1s" fill="freeze"/>
            <animate attributeName="cy" from="140" to="87" dur="0.5s" begin="3.1s" fill="freeze"/>
        </circle>
        
</svg>